<svg xmlns="http://www.w3.org/2000/svg" viewBox="16 30 168 168" width="200" height="200"><rect x="0" y="0" width="200" height="200" fill="#fff"/><circle cx="100" cy="54" r="17" fill="#fff" stroke="#000" stroke-width="6" stroke-linejoin="round"/><path d="M90 48 Q100 43 110 48 M88 57 Q100 53 112 57" fill="none" stroke="#000" stroke-width="4" stroke-linecap="round" stroke-linejoin="round"/><path d="M52 104 C36 100 34 130 53 130" fill="#fff" stroke="#000" stroke-width="6" stroke-linejoin="round"/><path d="M148 104 C164 100 166 130 147 130" fill="#fff" stroke="#000" stroke-width="6" stroke-linejoin="round"/><ellipse cx="100" cy="112" rx="48" ry="56" fill="#fff" stroke="#000" stroke-width="6" stroke-linejoin="round"/><path d="M52 108 C46 66 72 54 100 54 C128 54 154 66 148 108 C140 90 124 80 100 80 C76 80 60 90 52 108 Z" fill="#fff" stroke="#000" stroke-width="6" stroke-linejoin="round"/><path d="M72 66 Q84 74 100 72 M128 66 Q116 74 100 72 M60 92 Q72 80 86 78 M140 92 Q128 80 114 78" fill="none" stroke="#000" stroke-width="4" stroke-linecap="round" stroke-linejoin="round"/><rect x="63" y="98" width="32" height="27" rx="13" fill="none" stroke="#000" stroke-width="5" stroke-linecap="round" stroke-linejoin="round"/><rect x="105" y="98" width="32" height="27" rx="13" fill="none" stroke="#000" stroke-width="5" stroke-linecap="round" stroke-linejoin="round"/><path d="M95 109 Q100 105 105 109" fill="none" stroke="#000" stroke-width="5" stroke-linecap="round" stroke-linejoin="round"/><path d="M72 112 Q79 101 86 112" fill="none" stroke="#000" stroke-width="6" stroke-linecap="round" stroke-linejoin="round"/><path d="M114 112 Q121 101 128 112" fill="none" stroke="#000" stroke-width="6" stroke-linecap="round" stroke-linejoin="round"/><path d="M58 114 l-5 -4 M142 114 l5 -4" fill="none" stroke="#000" stroke-width="4" stroke-linecap="round" stroke-linejoin="round"/><path d="M88 142 Q100 153 112 142" fill="none" stroke="#000" stroke-width="6" stroke-linecap="round" stroke-linejoin="round"/></svg>
