<svg xmlns="http://www.w3.org/2000/svg" viewBox="16 30 168 168" width="200" height="200"><rect x="0" y="0" width="200" height="200" fill="#fff"/><path d="M48 110 C40 54 74 40 100 40 C130 40 162 56 152 112 C150 150 160 178 168 200 L32 200 C40 178 50 150 48 110 Z" fill="#000"/><ellipse cx="100" cy="112" rx="46" ry="55" fill="#fff" stroke="#000" stroke-width="6" stroke-linejoin="round"/><path d="M54 104 C54 66 78 50 104 50 C128 50 148 66 146 98 C132 90 118 76 110 64 C98 80 76 94 54 104 Z" fill="#000"/><path d="M70 114 Q79 103 88 114" fill="none" stroke="#000" stroke-width="6" stroke-linecap="round" stroke-linejoin="round"/><path d="M112 114 Q121 103 130 114" fill="none" stroke="#000" stroke-width="6" stroke-linecap="round" stroke-linejoin="round"/><path d="M88 142 Q100 153 112 142" fill="none" stroke="#000" stroke-width="6" stroke-linecap="round" stroke-linejoin="round"/></svg>
